<svg xmlns="http://www.w3.org/2000/svg" viewBox="-24 -38 133 133" width="1024" height="1024"><rect x="-24" y="-38" width="133" height="133" fill="#1c1917"/><path d="M9.08 33Q8.64 33 8.32 32.62Q8 32.25 8 31.73V1.27Q8 0.75 8.32 0.38Q8.64 0 9.08 0H22.34Q26.17 0 28.61 1.11Q31.04 2.22 32.22 4.41Q33.4 6.6 33.4 9.9Q33.4 11.41 32.86 12.61Q32.32 13.81 31.58 14.61Q30.84 15.42 30.21 15.79Q31.72 16.55 32.86 18.41Q34 20.27 34 22.63Q34 26.16 32.68 28.45Q31.36 30.74 28.87 31.87Q26.37 33 22.74 33ZM17.98 24.89H21.7Q22.7 24.89 23.12 24.11Q23.54 23.34 23.54 22.58Q23.54 21.73 23.08 21Q22.62 20.27 21.7 20.27H17.98ZM17.98 12.4H21.34Q22.22 12.4 22.6 11.71Q22.98 11.03 22.98 10.28Q22.98 9.52 22.6 8.82Q22.22 8.11 21.34 8.11H17.98Z M37.05 33Q36.62 33 36.31 32.62Q36 32.25 36 31.73V1.27Q36 0.75 36.31 0.38Q36.62 0 37.05 0H44.95Q45.38 0 45.69 0.38Q46 0.75 46 1.27V31.73Q46 32.25 45.69 32.62Q45.38 33 44.95 33Z M62.37 33.47Q58.08 33.47 54.93 32.06Q51.78 30.64 50 27.77Q48.21 24.89 48.04 20.51Q48 18.57 48 16.31Q48 14.05 48.04 12.02Q48.21 7.83 50.02 5.07Q51.83 2.31 55.02 0.92Q58.21 -0.47 62.37 -0.47Q65.73 -0.47 68.41 0.35Q71.09 1.18 73 2.64Q74.92 4.1 75.94 6.01Q76.96 7.92 77 10.04Q77 10.47 76.72 10.77Q76.45 11.08 76.06 11.08H66.67Q66.2 11.08 65.92 10.94Q65.65 10.8 65.43 10.56Q65.26 10.32 64.95 9.88Q64.63 9.43 64.03 9.07Q63.44 8.72 62.37 8.72Q60.8 8.72 59.99 9.59Q59.18 10.47 59.1 12.26Q58.97 16.17 59.1 20.27Q59.18 22.39 60.08 23.34Q60.97 24.28 62.54 24.28Q63.61 24.28 64.41 23.95Q65.22 23.62 65.69 22.86Q66.16 22.11 66.16 20.93V20.88H64.16Q63.69 20.88 63.35 20.51Q63.01 20.13 63.01 19.61V14.38Q63.01 13.86 63.35 13.48Q63.69 13.11 64.16 13.11H75.85Q76.32 13.11 76.66 13.48Q77 13.86 77 14.38V20.51Q77 24.75 75.13 27.63Q73.26 30.5 69.96 31.99Q66.67 33.47 62.37 33.47Z" fill="#F1880E"/><path d="M0.81 57Q0.48 57 0.24 56.74Q0 56.47 0 56.11V34.89Q0 34.53 0.24 34.26Q0.48 34 0.81 34H9.94Q12.68 34 14.71 34.87Q16.74 35.74 17.87 37.53Q19 39.32 19 42.05Q19 44.78 17.87 46.5Q16.74 48.23 14.71 49.03Q12.68 49.84 9.94 49.84H7.83V56.11Q7.83 56.47 7.59 56.74Q7.35 57 7.02 57ZM7.68 43.76H9.79Q10.27 43.76 10.72 43.35Q11.17 42.94 11.17 41.98Q11.17 41.36 10.89 40.74Q10.6 40.11 9.79 40.11H7.68Z M19.73 57Q19.43 57 19.22 56.74Q19 56.47 19 56.11V34.89Q19 34.53 19.22 34.26Q19.43 34 19.73 34H25.27Q25.57 34 25.78 34.26Q26 34.53 26 34.89V56.11Q26 56.47 25.78 56.74Q25.57 57 25.27 57Z M28.73 57Q28.44 57 28.22 56.74Q28 56.47 28 56.11V51.38Q28 50.92 28.15 50.64Q28.3 50.36 28.41 50.23L36.02 40.67H29.01Q28.71 40.67 28.49 40.41Q28.27 40.14 28.27 39.78V34.89Q28.27 34.53 28.49 34.26Q28.71 34 29.01 34H43.91Q44.21 34 44.43 34.26Q44.65 34.53 44.65 34.89V39.55Q44.65 39.88 44.55 40.16Q44.46 40.44 44.29 40.64L37.08 50.26H44.27Q44.56 50.26 44.78 50.53Q45 50.79 45 51.15V56.11Q45 56.47 44.78 56.74Q44.56 57 44.27 57Z M46.73 57Q46.44 57 46.22 56.74Q46 56.47 46 56.11V51.38Q46 50.92 46.15 50.64Q46.3 50.36 46.41 50.23L54.02 40.67H47.01Q46.71 40.67 46.49 40.41Q46.27 40.14 46.27 39.78V34.89Q46.27 34.53 46.49 34.26Q46.71 34 47.01 34H61.91Q62.21 34 62.43 34.26Q62.65 34.53 62.65 34.89V39.55Q62.65 39.88 62.55 40.16Q62.46 40.44 62.29 40.64L55.08 50.26H62.27Q62.56 50.26 62.78 50.53Q63 50.79 63 51.15V56.11Q63 56.47 62.78 56.74Q62.56 57 62.27 57Z M63.64 57Q63.38 57 63.19 56.79Q63 56.57 63 56.28Q63 56.15 63.03 56.05L69.53 35.08Q69.61 34.72 69.94 34.36Q70.26 34 70.84 34H77.16Q77.74 34 78.06 34.36Q78.39 34.72 78.47 35.08L84.97 56.05Q85 56.15 85 56.28Q85 56.57 84.81 56.79Q84.62 57 84.36 57H78.97Q78.41 57 78.17 56.72Q77.92 56.44 77.83 56.18L77.13 54.01H70.87L70.17 56.18Q70.08 56.44 69.85 56.72Q69.61 57 69.03 57ZM72.35 47.6H75.65L73.99 41.49Z" fill="#fff"/></svg>